<?xml version="1.0"?>
<svg xmlns="http://www.w3.org/2000/svg" height="512px" viewBox="-21 -21 682.66669 682.66669" width="512px" class=""><g><path d="m92.5 104.589844c-3.285156 0-6.515625 1.324218-8.835938 3.660156-2.328124 2.328125-3.664062 5.546875-3.664062 8.839844 0 3.285156 1.335938 6.5 3.664062 8.832031 2.320313 2.328125 5.550782 3.667969 8.835938 3.667969s6.515625-1.339844 8.835938-3.667969c2.328124-2.332031 3.664062-5.5625 3.664062-8.832031 0-3.292969-1.335938-6.511719-3.664062-8.839844-2.320313-2.335938-5.550782-3.660156-8.835938-3.660156zm0 0" data-original="#000000" class="active-path" data-old_color="#ffffff" fill="#ffffff"/><path d="m548.335938 213.675781c-1.65625 0-3.3125.050781-4.96875.136719-7.085938-23.125-20.648438-43.21875-38.367188-58.429688v-117.882812c0-20.679688-16.820312-37.5-37.5-37.5h-410c-31.703125 0-57.5 25.796875-57.5 57.5v525c0 31.703125 25.796875 57.5 57.5 57.5h410c20.679688 0 37.5-16.820312 37.5-37.5v-205.488281h43.335938c50.539062 0 91.664062-41.117188 91.664062-91.664063s-41.125-91.671875-91.664062-91.671875zm-68.335938 298.824219c0 6.894531-5.605469 12.5-12.5 12.5h-108.125c-6.90625 0-12.5 5.59375-12.5 12.5s5.59375 12.5 12.5 12.5h108.125c4.382812 0 8.589844-.761719 12.5-2.148438v54.648438c0 6.894531-5.605469 12.5-12.5 12.5h-410c-17.921875 0-32.5-14.578125-32.5-32.5s14.578125-32.5 32.5-32.5h195c6.90625 0 12.5-5.59375 12.5-12.5s-5.59375-12.5-12.5-12.5h-147.5v-358.125c0-6.90625-5.59375-12.5-12.5-12.5s-12.5 5.59375-12.5 12.5v358.125h-22.5c-12.054688 0-23.246094 3.734375-32.5 10.097656v-477.597656c0-17.921875 14.578125-32.5 32.5-32.5h410c6.894531 0 12.5 5.605469 12.5 12.5v101.113281c-17.246094-8.808593-36.65625-13.753906-56.953125-13.753906-56.609375 0-106.371094 38.335937-121.273437 92.246094-39.148438 10.988281-66.773438 46.871093-66.773438 88.242187 0 50.542969 41.125 91.664063 91.664062 91.664063h73.335938v43.816406c0 6.90625 5.59375 12.5 12.5 12.5h50c6.90625 0 12.5-5.59375 12.5-12.5v-43.816406h5zm-22.285156-220.511719c-4.667969 1.933594-7.714844 6.488281-7.714844 11.546875v124.800782h-25v-124.800782c0-5.058594-3.046875-9.613281-7.714844-11.546875-4.671875-1.941406-10.050781-.871093-13.621094 2.703125l-20.457031 20.460938-17.679687-17.683594 71.972656-71.96875 71.972656 71.96875-17.679687 17.683594-20.457031-20.460938c-3.570313-3.574218-8.949219-4.644531-13.621094-2.703125zm90.621094 80.023438h-73.335938v-38.300781l7.953125 7.960937c4.882813 4.875 12.796875 4.875 17.679687 0l35.351563-35.359375c4.882813-4.882812 4.882813-12.796875 0-17.679688l-89.648437-89.648437c-2.34375-2.34375-5.519532-3.664063-8.835938-3.664063s-6.492188 1.320313-8.835938 3.664063l-89.648437 89.648437c-4.882813 4.882813-4.882813 12.796876 0 17.679688l35.351563 35.359375c4.882812 4.875 12.796874 4.875 17.679687 0l7.953125-7.960937v38.300781h-73.335938c-36.757812 0-66.664062-29.90625-66.664062-66.664063 0-32.113281 22.875-59.679687 54.394531-65.539062 4.988281-.925782 8.921875-4.777344 9.949219-9.746094 9.648438-46.472656 51.160156-80.203125 98.707031-80.203125 47.527344 0 89.035157 33.714844 98.699219 80.164063 1.378906 6.648437 7.800781 10.972656 14.484375 9.75 3.976563-.726563 8.046875-1.09375 12.101563-1.09375 36.757812 0 66.664062 29.90625 66.664062 66.667968 0 36.757813-29.90625 66.664063-66.664062 66.664063zm0 0" data-original="#000000" class="active-path" data-old_color="#ffffff" fill="#ffffff"/><path d="m305 525c-3.285156 0-6.515625 1.335938-8.835938 3.664062-2.328124 2.320313-3.664062 5.550782-3.664062 8.835938s1.335938 6.515625 3.664062 8.835938c2.320313 2.328124 5.550782 3.664062 8.835938 3.664062s6.515625-1.335938 8.835938-3.664062c2.328124-2.320313 3.664062-5.550782 3.664062-8.835938s-1.335938-6.515625-3.664062-8.835938c-2.320313-2.328124-5.550782-3.664062-8.835938-3.664062zm0 0" data-original="#000000" class="active-path" data-old_color="#ffffff" fill="#ffffff"/></g> </svg>
