<svg id="svg" version="1.1" xmlns="http://www.w3.org/2000/svg" xmlns:xlink="http://www.w3.org/1999/xlink" width="400" height="400" viewBox="0, 0, 400,400"><g id="svgg"><path id="path0" d="M235.431 89.991 C 235.370 90.052,234.723 90.179,233.993 90.274 C 230.350 90.744,224.020 92.985,224.435 93.657 C 224.539 93.825,224.494 93.874,224.328 93.771 C 223.982 93.557,220.255 95.454,220.069 95.939 C 219.997 96.126,220.522 96.777,221.236 97.386 C 221.949 97.995,223.776 99.762,225.296 101.313 C 226.815 102.864,228.165 104.103,228.296 104.067 C 228.426 104.030,228.503 104.106,228.467 104.235 C 228.349 104.649,229.615 106.156,229.921 105.966 C 230.091 105.862,230.141 105.906,230.039 106.070 C 229.806 106.448,231.168 108.051,231.532 107.826 C 231.699 107.723,231.738 107.777,231.626 107.957 C 231.383 108.351,232.769 110.184,233.138 109.956 C 233.291 109.862,233.344 109.900,233.256 110.042 C 233.040 110.392,233.983 111.790,234.263 111.535 C 234.385 111.424,234.412 111.462,234.323 111.619 C 234.085 112.038,235.147 113.664,235.512 113.439 C 235.691 113.328,235.743 113.369,235.638 113.539 C 235.401 113.922,236.908 116.421,237.319 116.327 C 237.495 116.286,237.562 116.379,237.467 116.533 C 237.372 116.687,237.732 117.595,238.267 118.552 C 242.761 126.588,246.273 136.424,247.592 144.667 C 248.143 148.111,248.561 151.385,248.609 152.616 C 248.641 153.450,248.727 154.132,248.800 154.132 C 248.873 154.132,248.896 155.642,248.851 157.487 L 248.769 160.843 252.953 156.755 C 262.256 147.665,269.960 138.196,273.609 131.367 L 274.970 128.819 274.301 128.652 C 273.747 128.512,273.669 128.385,273.849 127.908 C 274.076 127.306,274.151 121.626,273.937 121.249 C 273.869 121.130,273.766 120.352,273.707 119.520 C 273.648 118.688,273.491 117.646,273.357 117.204 C 273.224 116.762,273.040 116.065,272.949 115.656 C 272.859 115.246,272.669 114.983,272.529 115.070 C 272.388 115.157,272.342 115.047,272.427 114.825 C 272.710 114.088,270.552 108.674,270.090 108.960 C 269.970 109.034,269.933 108.936,270.008 108.743 C 270.206 108.226,267.529 104.004,266.986 103.979 C 266.736 103.967,266.675 103.900,266.850 103.829 C 267.221 103.678,266.798 103.124,264.267 100.445 C 259.647 95.555,252.956 91.901,245.903 90.415 C 243.810 89.973,235.774 89.648,235.431 89.991 M240.334 158.800 C 240.337 159.387,240.391 159.595,240.455 159.264 C 240.519 158.932,240.517 158.452,240.450 158.197 C 240.383 157.942,240.331 158.213,240.334 158.800 M240.329 172.000 C 240.329 172.513,240.383 172.723,240.450 172.467 C 240.518 172.210,240.518 171.790,240.450 171.533 C 240.383 171.277,240.329 171.487,240.329 172.000 M136.030 246.231 C 135.813 246.493,135.747 249.740,135.797 257.764 L 135.867 268.933 138.533 268.933 L 141.200 268.933 141.270 257.764 C 141.350 244.840,141.586 245.867,138.533 245.867 C 136.998 245.867,136.241 245.977,136.030 246.231 M197.520 246.035 C 197.418 246.138,197.333 247.652,197.333 249.400 C 197.333 251.148,197.243 252.531,197.133 252.475 C 191.217 249.429,185.635 252.093,184.521 258.494 C 183.122 266.524,190.159 271.881,197.099 268.069 C 197.191 268.019,197.331 268.228,197.410 268.533 C 197.546 269.052,197.715 269.082,200.044 269.010 L 202.533 268.933 202.533 257.467 L 202.533 246.000 200.120 245.924 C 198.793 245.882,197.623 245.932,197.520 246.035 M263.467 257.467 L 263.467 268.533 264.925 268.533 L 266.384 268.533 266.459 265.168 L 266.533 261.803 269.467 265.150 L 272.400 268.497 274.493 268.515 L 276.586 268.533 275.256 267.000 C 274.525 266.157,273.659 265.227,273.333 264.933 C 273.007 264.640,271.902 263.471,270.878 262.337 L 269.016 260.273 272.708 256.384 C 277.162 251.693,277.032 252.000,274.565 252.000 L 272.553 252.000 269.543 255.474 L 266.533 258.948 266.462 252.674 L 266.390 246.400 264.929 246.400 L 263.467 246.400 263.467 257.467 M118.800 247.293 C 109.163 250.477,108.354 263.999,117.540 268.351 C 122.563 270.730,129.287 268.692,131.829 264.021 C 133.093 261.699,132.905 261.478,129.600 261.404 L 126.800 261.341 126.267 262.182 C 124.062 265.656,118.427 264.694,117.037 260.607 C 114.868 254.234,121.526 248.991,125.905 253.624 L 127.143 254.933 129.700 254.933 C 132.760 254.933,133.063 254.589,131.959 252.371 C 129.864 248.164,123.545 245.725,118.800 247.293 M207.200 258.133 L 207.200 268.533 212.333 268.531 C 217.179 268.528,217.543 268.493,218.831 267.893 C 222.779 266.054,223.106 260.505,219.396 258.282 C 218.775 257.910,218.416 257.604,218.599 257.603 C 220.093 257.591,221.828 254.347,221.489 252.201 C 220.932 248.677,218.973 247.733,212.214 247.733 L 207.200 247.733 207.200 258.133 M216.538 250.566 C 217.792 251.068,218.400 252.035,218.400 253.527 C 218.400 255.778,217.028 256.533,212.942 256.533 L 210.133 256.533 210.133 253.333 L 210.133 250.133 212.795 250.133 C 214.628 250.133,215.792 250.268,216.538 250.566 M150.000 251.558 C 142.519 254.029,141.691 265.165,148.737 268.552 C 153.212 270.703,159.416 268.559,161.363 264.187 C 164.620 256.879,157.579 249.054,150.000 251.558 M164.987 251.635 C 164.583 252.039,164.781 263.305,165.218 264.776 C 166.343 268.567,171.819 270.642,175.291 268.594 C 176.203 268.055,176.219 268.055,176.353 268.567 C 176.477 269.043,176.700 269.081,178.978 269.010 L 181.467 268.933 181.467 260.267 L 181.467 251.600 178.933 251.600 L 176.400 251.600 176.267 257.067 C 176.108 263.585,175.747 264.533,173.425 264.533 C 170.614 264.533,170.297 263.817,170.133 257.080 L 170.000 251.600 167.587 251.524 C 166.260 251.482,165.090 251.532,164.987 251.635 M230.863 252.007 C 222.247 254.180,222.588 267.385,231.295 268.750 C 237.320 269.695,241.615 265.769,241.277 259.624 C 240.979 254.189,236.166 250.669,230.863 252.007 M249.796 252.007 C 241.181 254.180,241.522 267.385,250.228 268.750 C 256.254 269.695,260.548 265.769,260.211 259.624 C 259.912 254.189,255.099 250.669,249.796 252.007 M282.533 251.983 C 276.331 253.493,277.128 259.787,283.733 261.461 C 286.266 262.104,287.704 262.856,287.902 263.644 C 288.666 266.691,282.838 267.405,281.385 264.443 C 280.914 263.482,278.133 263.340,278.133 264.277 C 278.133 269.292,288.546 270.686,290.568 265.942 C 291.947 262.705,290.446 260.762,285.366 259.204 C 281.792 258.109,280.814 257.202,281.608 255.719 C 282.733 253.617,287.733 254.394,287.733 256.671 C 287.733 256.977,288.096 257.067,289.333 257.067 C 290.213 257.067,290.933 257.028,290.933 256.982 C 290.933 253.547,286.629 250.986,282.533 251.983 M234.875 254.814 C 240.483 257.152,238.915 266.210,232.902 266.210 C 229.144 266.210,226.819 262.368,228.002 258.111 C 228.781 255.304,232.163 253.682,234.875 254.814 M253.809 254.814 C 259.416 257.152,257.848 266.210,251.835 266.210 C 248.077 266.210,245.753 262.368,246.935 258.111 C 247.715 255.304,251.096 253.682,253.809 254.814 M154.694 256.605 C 158.713 259.291,155.627 266.153,151.319 264.109 C 147.952 262.511,149.248 256.000,152.933 256.000 C 153.403 256.000,154.196 256.272,154.694 256.605 M195.683 256.722 C 198.226 258.621,197.663 263.322,194.779 264.274 C 191.410 265.385,188.716 261.556,190.467 258.143 C 191.521 256.087,193.947 255.426,195.683 256.722 M216.897 259.568 C 219.667 260.725,219.667 264.608,216.897 265.766 C 216.330 266.003,214.972 266.133,213.075 266.133 L 210.133 266.133 210.133 262.667 L 210.133 259.200 213.075 259.200 C 214.972 259.200,216.330 259.331,216.897 259.568 " stroke="none" fill="#dfdcdc" fill-rule="evenodd"></path><path id="path1" d="M160.533 83.431 C 160.533 83.524,159.903 83.631,159.133 83.670 C 157.701 83.741,156.133 83.922,156.133 84.016 C 156.133 84.090,154.946 84.246,154.000 84.295 C 153.560 84.318,153.080 84.408,152.933 84.495 C 152.787 84.582,152.367 84.690,152.000 84.736 C 151.633 84.782,150.675 85.006,149.871 85.235 C 149.067 85.464,148.107 85.682,147.738 85.721 C 147.369 85.759,146.866 85.877,146.621 85.982 C 146.376 86.088,146.016 86.205,145.821 86.242 C 145.626 86.280,144.927 86.472,144.267 86.669 C 143.607 86.866,142.977 87.006,142.867 86.980 C 142.757 86.955,142.667 87.033,142.667 87.156 C 142.667 87.278,142.495 87.378,142.285 87.378 C 142.074 87.378,141.162 87.710,140.256 88.117 C 139.350 88.523,138.472 88.879,138.305 88.907 C 137.694 89.009,135.323 89.965,134.933 90.267 C 134.504 90.599,131.509 92.055,131.067 92.147 C 130.514 92.262,125.849 95.174,125.537 95.599 C 125.430 95.746,125.340 95.772,125.337 95.656 C 125.335 95.540,125.017 95.738,124.630 96.097 C 124.244 96.455,123.614 96.910,123.230 97.108 C 122.847 97.305,122.235 97.737,121.869 98.067 C 121.504 98.397,121.114 98.667,121.003 98.667 C 120.891 98.667,120.568 98.877,120.284 99.133 C 120.000 99.390,119.444 99.840,119.050 100.133 C 117.615 101.199,110.902 107.652,109.866 108.961 C 108.519 110.662,107.221 112.224,106.468 113.051 C 105.992 113.573,105.602 114.086,105.601 114.192 C 105.600 114.445,104.028 116.734,103.281 117.573 C 102.959 117.935,102.756 118.329,102.830 118.449 C 102.904 118.569,102.838 118.667,102.682 118.667 C 102.527 118.667,102.400 118.837,102.400 119.044 C 102.400 119.252,102.299 119.462,102.175 119.511 C 101.765 119.673,97.349 128.187,96.528 130.400 C 96.283 131.060,95.756 132.500,95.358 133.600 C 94.959 134.700,94.562 135.780,94.476 136.000 C 94.390 136.220,94.290 136.520,94.255 136.667 C 94.219 136.813,93.926 137.893,93.604 139.067 C 93.281 140.240,93.003 141.410,92.985 141.667 C 92.967 141.923,92.866 142.133,92.759 142.133 C 92.653 142.133,92.572 142.343,92.579 142.600 C 92.585 142.857,92.456 143.847,92.292 144.800 C 90.913 152.795,90.530 165.694,91.573 168.983 C 91.661 169.259,91.788 169.961,91.856 170.542 C 92.112 172.728,92.275 173.769,92.553 174.968 C 92.709 175.647,92.870 176.367,92.910 176.568 C 92.992 176.979,93.337 178.392,93.455 178.800 C 93.497 178.947,93.552 179.155,93.577 179.263 C 93.601 179.371,93.806 179.971,94.032 180.596 C 94.257 181.222,94.497 182.014,94.564 182.357 C 94.876 183.955,96.901 188.957,98.793 192.800 C 100.038 195.330,101.618 198.243,101.829 198.398 C 102.050 198.561,103.050 200.078,103.060 200.267 C 103.080 200.621,107.184 206.167,108.437 207.533 C 108.942 208.083,109.294 208.533,109.220 208.533 C 109.145 208.533,109.470 208.933,109.942 209.422 C 115.075 214.741,117.106 216.727,117.212 216.533 C 117.252 216.460,117.545 216.730,117.862 217.133 C 118.179 217.537,118.600 217.867,118.797 217.867 C 118.994 217.867,119.196 217.957,119.244 218.067 C 119.350 218.304,120.945 219.648,122.015 220.400 C 122.432 220.693,123.289 221.323,123.920 221.798 C 124.551 222.274,125.067 222.583,125.067 222.485 C 125.067 222.387,125.337 222.553,125.667 222.853 C 125.997 223.153,126.387 223.446,126.533 223.504 C 126.680 223.561,127.280 223.906,127.867 224.270 C 128.453 224.635,128.993 224.938,129.067 224.946 C 129.140 224.953,129.620 225.225,130.133 225.552 C 130.647 225.878,131.337 226.215,131.667 226.301 C 131.997 226.387,132.267 226.549,132.267 226.660 C 132.267 226.836,134.574 227.919,134.933 227.912 C 135.007 227.911,135.741 228.285,136.566 228.744 C 137.391 229.203,138.131 229.514,138.210 229.434 C 138.289 229.355,138.635 229.445,138.977 229.635 C 139.320 229.825,139.690 229.954,139.800 229.923 C 139.910 229.892,140.000 230.000,140.000 230.162 C 140.000 230.324,140.177 230.389,140.392 230.307 C 140.608 230.224,140.989 230.361,141.240 230.611 C 141.490 230.862,141.734 231.037,141.781 231.000 C 141.828 230.963,141.897 230.941,141.933 230.951 C 141.970 230.960,143.080 231.261,144.400 231.618 C 145.720 231.976,147.100 232.335,147.467 232.416 C 147.833 232.497,148.655 232.739,149.292 232.954 C 150.392 233.324,151.098 233.472,152.933 233.717 C 153.373 233.775,154.569 233.959,155.589 234.126 C 156.610 234.292,158.050 234.480,158.789 234.544 C 159.529 234.608,160.433 234.724,160.800 234.801 C 161.682 234.988,171.945 234.984,172.800 234.796 C 173.167 234.716,174.187 234.604,175.067 234.548 C 175.947 234.492,177.807 234.250,179.200 234.009 C 180.593 233.769,182.065 233.516,182.471 233.448 C 182.876 233.380,183.716 233.163,184.337 232.966 C 185.359 232.642,186.983 232.197,190.000 231.414 C 190.587 231.262,191.247 231.072,191.467 230.992 C 191.687 230.912,191.927 230.825,192.000 230.800 C 192.786 230.529,193.343 230.296,194.115 229.916 C 194.618 229.669,195.162 229.465,195.324 229.462 C 195.910 229.452,203.322 225.761,204.095 225.094 C 204.367 224.859,204.607 224.726,204.628 224.799 C 204.649 224.872,205.147 224.634,205.733 224.271 C 206.320 223.908,206.920 223.548,207.067 223.471 C 207.550 223.216,211.330 220.708,211.467 220.553 C 211.540 220.469,212.380 219.806,213.333 219.079 C 214.287 218.353,215.334 217.480,215.660 217.139 C 215.986 216.799,216.346 216.551,216.460 216.588 C 217.278 216.856,236.376 187.714,238.166 183.467 C 240.871 177.048,241.222 163.951,239.192 145.200 C 237.988 134.082,234.695 126.195,226.402 114.568 C 223.017 109.822,215.113 100.331,214.291 100.025 C 214.131 99.965,213.760 99.661,213.467 99.348 C 213.173 99.036,211.853 98.065,210.533 97.190 C 209.213 96.316,208.073 95.530,208.000 95.444 C 207.927 95.359,206.967 94.761,205.867 94.116 C 204.767 93.471,203.827 92.851,203.778 92.738 C 203.729 92.626,203.502 92.533,203.274 92.533 C 203.046 92.533,202.299 92.189,201.615 91.768 C 200.931 91.347,200.077 90.913,199.719 90.803 C 199.360 90.693,198.887 90.456,198.667 90.276 C 198.231 89.920,196.175 89.074,195.353 88.913 C 195.070 88.858,194.742 88.660,194.624 88.473 C 194.505 88.286,194.406 88.222,194.404 88.329 C 194.402 88.437,193.770 88.272,193.000 87.962 C 192.230 87.652,191.450 87.394,191.267 87.388 C 191.083 87.382,190.933 87.298,190.933 87.200 C 190.933 87.102,190.783 87.011,190.600 86.998 C 189.801 86.939,188.586 86.596,187.554 86.140 C 186.942 85.870,186.375 85.713,186.296 85.793 C 186.216 85.873,185.817 85.816,185.409 85.667 C 184.229 85.235,182.622 84.825,181.467 84.661 C 180.880 84.578,179.980 84.443,179.467 84.361 C 178.953 84.280,178.293 84.181,178.000 84.141 C 177.707 84.101,177.467 84.043,177.467 84.012 C 177.467 83.925,176.286 83.795,174.600 83.697 C 173.757 83.648,173.067 83.530,173.067 83.435 C 173.067 83.340,170.247 83.262,166.800 83.262 C 163.353 83.262,160.533 83.338,160.533 83.431 M173.600 98.257 C 174.700 98.337,176.405 98.533,177.390 98.691 C 178.374 98.849,179.454 99.021,179.790 99.073 C 181.423 99.328,182.195 99.531,182.867 99.881 C 183.270 100.091,183.803 100.264,184.051 100.265 C 184.299 100.266,184.573 100.381,184.659 100.522 C 184.746 100.662,184.966 100.720,185.148 100.650 C 185.330 100.580,186.076 100.808,186.806 101.157 C 187.536 101.506,188.582 101.937,189.130 102.115 C 189.678 102.293,190.196 102.552,190.281 102.690 C 190.367 102.829,190.540 102.878,190.667 102.800 C 190.793 102.722,190.972 102.780,191.064 102.929 C 191.156 103.078,191.464 103.200,191.749 103.200 C 192.034 103.200,192.267 103.320,192.267 103.467 C 192.267 103.613,192.357 103.709,192.467 103.680 C 192.655 103.630,195.167 104.879,196.933 105.900 C 197.373 106.154,198.363 106.685,199.133 107.079 C 199.903 107.473,200.533 107.879,200.533 107.980 C 200.533 108.081,200.983 108.366,201.533 108.614 C 202.083 108.861,203.133 109.614,203.867 110.286 C 204.600 110.958,205.591 111.814,206.070 112.188 C 207.515 113.318,212.835 118.706,214.400 120.623 C 215.207 121.612,216.137 122.746,216.466 123.144 C 216.796 123.541,217.066 124.017,217.066 124.200 C 217.067 124.383,217.157 124.533,217.267 124.534 C 217.377 124.534,217.800 125.104,218.207 125.800 C 219.108 127.343,219.463 127.923,220.059 128.829 C 220.311 129.213,220.458 129.586,220.386 129.659 C 220.313 129.731,220.437 129.942,220.660 130.128 C 220.884 130.314,221.067 130.694,221.067 130.974 C 221.067 131.254,221.227 131.545,221.422 131.620 C 221.618 131.695,221.786 131.901,221.795 132.078 C 221.805 132.255,222.436 133.780,223.197 135.467 C 223.958 137.153,224.696 138.953,224.836 139.467 C 224.977 139.980,225.195 140.640,225.322 140.933 C 225.800 142.043,225.949 142.544,225.897 142.867 C 225.867 143.050,225.976 143.200,226.137 143.200 C 226.299 143.200,226.359 143.318,226.270 143.461 C 226.181 143.605,226.231 143.952,226.382 144.232 C 226.649 144.732,226.950 146.210,227.028 147.400 C 227.049 147.730,227.127 148.001,227.200 148.002 C 227.273 148.003,227.368 148.865,227.410 149.919 C 227.452 150.972,227.579 152.261,227.692 152.784 C 228.060 154.487,227.804 166.991,227.355 169.243 C 227.204 170.000,226.853 172.291,226.809 172.805 C 226.790 173.027,226.707 173.327,226.624 173.471 C 226.541 173.615,226.138 174.813,225.729 176.133 C 225.320 177.453,224.879 178.671,224.750 178.839 C 224.620 179.006,224.540 179.246,224.572 179.372 C 224.604 179.497,224.411 180.080,224.144 180.667 C 223.878 181.253,223.573 181.973,223.467 182.267 C 223.361 182.560,222.850 183.700,222.331 184.800 C 221.812 185.900,221.385 186.907,221.383 187.037 C 221.381 187.167,221.259 187.348,221.112 187.439 C 220.965 187.529,220.402 188.443,219.860 189.468 C 218.258 192.503,218.013 192.924,217.733 193.129 C 217.556 193.260,217.556 193.328,217.733 193.333 C 217.901 193.338,217.896 193.415,217.721 193.537 C 217.567 193.645,216.893 194.453,216.223 195.333 C 214.821 197.173,213.829 198.357,212.600 199.660 C 212.123 200.166,211.733 200.641,211.733 200.716 C 211.733 200.792,210.746 201.771,209.539 202.893 C 208.332 204.015,207.042 205.234,206.672 205.601 C 206.302 205.968,205.520 206.624,204.933 207.059 C 204.347 207.494,203.580 208.112,203.230 208.433 C 202.880 208.753,202.280 209.172,201.897 209.364 C 201.514 209.555,200.644 210.107,199.964 210.589 C 199.285 211.072,198.603 211.467,198.450 211.467 C 198.297 211.467,198.004 211.634,197.799 211.839 C 197.382 212.256,192.442 214.838,190.800 215.497 C 188.144 216.562,184.601 217.864,183.931 218.020 C 183.526 218.115,183.128 218.301,183.046 218.434 C 182.964 218.567,182.787 218.608,182.654 218.525 C 182.520 218.443,182.175 218.502,181.886 218.656 C 181.598 218.811,180.605 219.054,179.681 219.198 C 178.756 219.342,177.640 219.524,177.200 219.603 C 174.020 220.173,167.061 220.457,163.067 220.178 C 161.600 220.076,159.440 219.929,158.267 219.851 C 157.093 219.773,155.773 219.604,155.333 219.475 C 154.893 219.346,153.873 219.107,153.067 218.945 C 150.985 218.524,150.846 218.492,150.400 218.322 C 150.180 218.238,149.220 217.907,148.267 217.586 C 147.313 217.265,146.025 216.777,145.403 216.501 C 144.781 216.226,144.150 216.000,143.999 216.000 C 143.849 216.000,143.518 215.890,143.263 215.755 C 143.008 215.621,141.300 214.769,139.467 213.863 C 137.633 212.957,135.944 212.048,135.712 211.841 C 135.481 211.635,135.192 211.467,135.071 211.467 C 134.950 211.467,134.457 211.167,133.976 210.800 C 133.496 210.433,132.974 210.133,132.818 210.133 C 132.661 210.133,132.533 210.013,132.533 209.867 C 132.533 209.720,132.383 209.597,132.200 209.593 C 131.480 209.578,121.867 201.256,121.867 200.648 C 121.867 200.563,119.955 198.411,118.800 197.195 C 118.507 196.887,117.934 196.151,117.528 195.561 C 117.121 194.971,116.559 194.241,116.277 193.939 C 115.996 193.637,115.838 193.317,115.927 193.228 C 116.016 193.139,115.942 193.067,115.762 193.067 C 115.582 193.067,115.509 192.947,115.600 192.800 C 115.691 192.653,115.658 192.533,115.528 192.533 C 115.398 192.533,115.010 191.933,114.667 191.200 C 114.323 190.467,113.943 189.867,113.821 189.867 C 113.699 189.867,113.600 189.702,113.600 189.500 C 113.600 189.063,112.252 186.572,111.947 186.444 C 111.829 186.396,111.733 186.254,111.733 186.130 C 111.733 186.006,111.379 185.139,110.946 184.204 C 110.264 182.728,109.614 181.235,109.466 180.800 C 109.441 180.727,109.342 180.487,109.246 180.267 C 108.797 179.236,106.954 173.257,106.814 172.378 C 106.728 171.833,106.588 171.111,106.503 170.773 C 105.835 168.111,105.523 156.532,105.995 151.867 C 106.098 150.840,106.215 149.520,106.254 148.933 C 106.311 148.067,106.506 146.983,106.806 145.867 C 106.928 145.408,107.282 143.577,107.268 143.467 C 107.260 143.393,107.383 143.093,107.543 142.800 C 107.703 142.507,107.861 142.087,107.895 141.867 C 107.973 141.356,109.213 138.059,109.851 136.667 C 110.120 136.080,110.740 134.700,111.229 133.600 C 111.718 132.500,112.204 131.538,112.309 131.461 C 112.481 131.336,113.122 129.951,113.178 129.586 C 113.190 129.504,113.620 128.753,114.133 127.916 C 116.119 124.677,117.223 123.018,117.800 122.404 C 118.130 122.053,118.400 121.673,118.400 121.560 C 118.400 121.073,125.324 113.991,127.744 112.004 C 128.545 111.346,129.296 110.656,129.413 110.470 C 129.531 110.285,129.746 110.133,129.892 110.133 C 130.038 110.133,130.442 109.849,130.790 109.501 C 131.137 109.154,131.972 108.603,132.644 108.278 C 133.316 107.952,133.867 107.576,133.867 107.443 C 133.867 107.309,134.038 107.200,134.248 107.200 C 134.457 107.200,134.817 107.011,135.048 106.781 C 135.278 106.550,135.467 106.419,135.467 106.488 C 135.467 106.558,136.397 106.084,137.533 105.435 C 138.670 104.787,139.990 104.114,140.467 103.941 C 140.943 103.768,141.333 103.530,141.333 103.413 C 141.333 103.296,141.535 103.200,141.782 103.200 C 142.030 103.200,142.750 102.960,143.382 102.667 C 144.015 102.373,145.043 101.897,145.667 101.608 C 146.290 101.320,147.040 101.038,147.333 100.983 C 147.627 100.927,148.227 100.732,148.667 100.550 C 149.107 100.367,149.755 100.163,150.108 100.096 C 150.461 100.029,150.999 99.841,151.305 99.677 C 151.859 99.381,152.084 99.327,153.867 99.068 C 154.380 98.993,155.434 98.816,156.210 98.673 C 156.985 98.531,159.145 98.338,161.010 98.244 C 162.874 98.150,164.439 98.037,164.488 97.993 C 164.606 97.885,171.107 98.073,173.600 98.257 M145.230 123.000 C 145.182 123.183,144.916 124.053,144.638 124.933 C 144.361 125.813,144.164 126.623,144.200 126.733 C 144.237 126.843,144.167 126.933,144.044 126.933 C 143.922 126.933,143.809 127.083,143.793 127.267 C 143.758 127.681,143.654 128.082,143.189 129.600 C 142.987 130.260,142.812 130.920,142.800 131.067 C 142.788 131.213,142.405 132.533,141.949 134.000 C 141.493 135.467,140.681 138.227,140.145 140.133 C 139.609 142.040,139.053 143.815,138.910 144.078 C 138.766 144.340,138.720 144.670,138.807 144.811 C 138.894 144.952,138.863 145.067,138.739 145.067 C 138.615 145.067,138.490 145.277,138.461 145.533 C 138.392 146.141,138.253 146.704,138.050 147.200 C 137.960 147.420,137.654 148.500,137.371 149.600 C 137.088 150.700,136.604 152.316,136.295 153.191 C 135.986 154.066,135.733 154.982,135.733 155.227 C 135.733 155.472,135.559 156.007,135.347 156.417 C 135.134 156.827,135.025 157.266,135.103 157.393 C 135.182 157.520,135.131 157.768,134.991 157.945 C 134.698 158.314,134.167 159.885,133.973 160.954 C 133.901 161.355,133.723 161.904,133.578 162.175 C 133.433 162.445,133.373 162.667,133.444 162.667 C 133.515 162.667,133.404 163.070,133.198 163.563 C 132.992 164.056,132.764 164.746,132.690 165.096 C 132.521 165.906,131.590 169.441,131.224 170.667 C 131.071 171.180,130.972 171.672,131.006 171.759 C 131.039 171.846,130.930 172.086,130.762 172.292 C 130.476 172.643,129.562 175.734,129.527 176.467 C 129.518 176.650,129.404 176.800,129.273 176.800 C 129.142 176.800,129.097 176.900,129.173 177.023 C 129.249 177.145,129.010 178.108,128.644 179.163 C 128.277 180.217,128.049 181.197,128.138 181.340 C 128.226 181.483,128.171 181.600,128.016 181.600 C 127.860 181.600,127.733 181.819,127.733 182.086 C 127.733 182.515,127.170 184.488,126.729 185.600 C 126.642 185.820,126.538 186.180,126.499 186.400 C 126.372 187.099,126.224 187.578,125.882 188.400 C 125.698 188.840,125.530 189.470,125.507 189.800 C 125.485 190.130,125.402 190.400,125.323 190.400 C 125.245 190.400,125.164 190.611,125.145 190.869 C 125.125 191.127,125.070 191.512,125.021 191.724 C 124.973 191.936,125.053 192.123,125.200 192.140 C 125.347 192.157,125.947 192.308,126.533 192.477 C 127.120 192.646,127.840 192.829,128.133 192.884 C 128.427 192.940,129.004 193.123,129.417 193.293 C 129.830 193.462,130.436 193.600,130.764 193.600 C 131.092 193.600,131.474 193.710,131.613 193.845 C 131.753 193.979,132.249 194.148,132.717 194.219 C 133.185 194.290,133.694 194.427,133.849 194.523 C 134.118 194.689,134.867 194.894,135.733 195.038 C 135.953 195.074,136.334 195.195,136.579 195.306 C 136.824 195.417,137.184 195.532,137.379 195.561 C 137.574 195.591,137.871 195.701,138.038 195.806 C 138.382 196.021,139.310 193.994,139.056 193.582 C 138.971 193.445,139.039 193.333,139.206 193.333 C 139.374 193.333,139.458 193.183,139.392 193.000 C 139.327 192.817,139.430 192.247,139.621 191.733 C 139.812 191.220,140.700 188.280,141.596 185.200 C 142.491 182.120,143.394 179.120,143.603 178.533 C 143.812 177.947,144.062 176.957,144.159 176.333 C 144.255 175.710,144.419 175.200,144.523 175.200 C 144.626 175.200,144.718 175.050,144.726 174.867 C 144.750 174.326,145.539 171.546,145.818 171.019 C 145.960 170.752,146.145 170.113,146.229 169.600 C 146.384 168.656,146.933 166.665,147.443 165.200 C 147.873 163.966,149.109 160.021,149.180 159.658 C 149.215 159.479,149.409 158.793,149.611 158.133 C 149.813 157.473,149.986 156.813,149.996 156.667 C 150.006 156.520,150.108 156.250,150.223 156.067 C 150.338 155.883,150.363 155.733,150.279 155.733 C 150.195 155.733,150.298 155.323,150.507 154.822 C 150.717 154.320,150.818 153.840,150.733 153.755 C 150.648 153.670,150.698 153.600,150.844 153.600 C 150.991 153.600,151.111 153.431,151.111 153.225 C 151.111 153.019,151.321 152.182,151.578 151.366 C 151.835 150.549,152.071 149.701,152.104 149.482 C 152.136 149.262,152.246 148.999,152.348 148.897 C 152.450 148.795,152.533 148.441,152.533 148.111 C 152.533 147.781,152.755 146.991,153.025 146.355 C 153.296 145.720,153.466 145.050,153.403 144.867 C 153.340 144.683,153.426 144.533,153.594 144.533 C 153.761 144.533,153.829 144.421,153.744 144.284 C 153.660 144.147,153.770 143.577,153.989 143.018 C 154.208 142.458,154.579 141.280,154.812 140.400 C 155.363 138.323,155.360 138.334,155.539 137.867 C 155.812 137.155,156.362 135.344,156.431 134.933 C 156.514 134.431,156.675 133.850,156.873 133.333 C 157.091 132.763,157.689 130.811,157.667 130.741 C 157.656 130.708,157.827 130.108,158.047 129.407 C 158.266 128.707,158.547 127.803,158.671 127.399 C 158.925 126.572,158.501 126.198,157.138 126.049 C 156.719 126.003,156.201 125.857,155.988 125.724 C 155.775 125.591,155.360 125.445,155.067 125.399 C 154.774 125.354,153.694 125.066,152.667 124.759 C 151.640 124.453,150.680 124.183,150.533 124.160 C 150.387 124.137,150.127 124.031,149.957 123.925 C 149.787 123.818,149.337 123.706,148.957 123.674 C 148.577 123.643,148.267 123.549,148.267 123.465 C 148.267 123.382,147.879 123.284,147.404 123.248 C 146.930 123.212,146.426 123.066,146.284 122.924 C 145.922 122.562,145.333 122.604,145.230 123.000 M164.267 159.638 C 164.267 192.254,164.307 195.692,164.688 195.838 C 165.318 196.080,177.680 196.026,178.068 195.780 C 178.333 195.611,178.388 188.207,178.334 159.645 L 178.267 123.722 171.267 123.661 L 164.266 123.600 164.267 159.638 M181.666 159.853 C 181.730 193.648,181.759 195.598,182.200 195.683 C 182.643 195.768,182.667 193.921,182.667 159.903 C 182.667 124.176,182.665 124.033,182.132 124.073 C 181.600 124.113,181.598 124.259,181.666 159.853 M184.013 124.508 C 183.542 125.389,183.629 195.315,184.102 195.707 C 184.786 196.275,184.804 195.335,184.798 159.720 C 184.793 125.485,184.741 123.150,184.013 124.508 M188.271 124.526 C 187.888 125.240,187.896 195.637,188.278 195.874 C 189.350 196.536,189.333 197.110,189.333 159.863 C 189.333 122.618,189.331 122.544,188.271 124.526 M190.466 159.889 C 190.519 188.406,190.602 195.845,190.868 195.934 C 191.135 196.023,191.188 188.819,191.134 160.111 C 191.081 131.594,190.998 124.155,190.732 124.066 C 190.465 123.977,190.412 131.181,190.466 159.889 M192.469 160.000 C 192.423 183.822,192.490 196.032,192.667 196.094 C 193.600 196.423,193.592 196.717,193.598 160.492 C 193.604 125.721,193.566 124.000,192.793 124.000 C 192.631 124.000,192.512 137.287,192.469 160.000 M186.044 124.444 C 185.509 124.980,185.861 195.670,186.400 195.811 C 186.931 195.950,186.933 195.819,186.933 160.108 C 186.933 123.524,186.934 123.555,186.044 124.444 M194.667 160.085 C 194.667 191.604,194.715 195.961,195.064 196.095 C 195.743 196.356,195.748 196.020,195.673 159.737 C 195.604 126.335,195.575 124.402,195.133 124.317 C 194.691 124.232,194.667 126.079,194.667 160.085 M304.278 171.736 C 300.464 177.204,290.181 188.295,282.800 194.904 C 260.369 214.987,230.531 230.234,200.000 237.215 L 196.133 238.099 248.733 238.116 C 283.634 238.128,301.333 238.044,301.333 237.867 C 301.333 237.720,301.483 237.599,301.667 237.599 C 302.170 237.597,304.296 236.118,304.090 235.913 C 303.992 235.814,304.110 235.733,304.353 235.733 C 304.743 235.733,305.740 235.070,307.991 233.313 C 308.353 233.031,308.776 232.800,308.932 232.800 C 309.088 232.800,309.404 232.590,309.636 232.333 C 310.258 231.644,311.173 230.933,311.438 230.933 C 311.566 230.933,312.778 229.823,314.131 228.467 C 317.391 225.198,317.600 224.965,317.600 224.613 C 317.600 224.447,317.712 224.271,317.848 224.222 C 317.985 224.173,318.642 223.318,319.309 222.321 C 319.976 221.325,320.388 220.591,320.226 220.692 C 320.063 220.792,320.246 220.410,320.632 219.842 C 321.018 219.274,321.333 218.668,321.333 218.496 C 321.333 218.324,321.627 217.601,321.987 216.891 C 322.346 216.181,322.676 215.360,322.720 215.067 C 322.764 214.773,322.880 214.472,322.978 214.398 C 323.076 214.324,323.215 213.844,323.287 213.331 C 323.359 212.819,323.438 212.400,323.463 212.400 C 323.515 212.400,323.617 212.033,324.018 210.400 C 324.393 208.871,324.609 200.373,324.288 199.773 C 324.155 199.524,323.985 198.658,323.911 197.849 C 323.838 197.040,323.525 195.663,323.216 194.789 C 322.907 193.915,322.589 192.903,322.511 192.539 C 322.432 192.175,322.245 191.802,322.094 191.709 C 321.944 191.616,321.830 191.434,321.841 191.304 C 321.876 190.874,321.543 190.007,321.185 189.598 C 320.992 189.376,320.769 188.837,320.689 188.400 C 320.610 187.962,320.423 187.563,320.273 187.513 C 320.123 187.463,320.000 187.297,320.000 187.143 C 320.000 186.989,319.580 186.279,319.067 185.565 C 318.553 184.850,318.133 184.216,318.133 184.155 C 318.133 184.017,317.178 182.879,316.137 181.776 C 315.699 181.313,315.339 180.870,315.337 180.793 C 315.335 180.716,314.793 180.177,314.133 179.597 C 313.473 179.016,312.602 178.209,312.198 177.804 C 311.793 177.398,311.395 177.067,311.313 177.067 C 311.231 177.067,310.501 176.527,309.690 175.866 C 308.880 175.206,308.108 174.733,307.975 174.815 C 307.842 174.898,307.733 174.848,307.733 174.706 C 307.733 174.564,307.163 174.178,306.467 173.848 C 304.644 172.986,304.494 172.838,304.822 172.225 C 305.400 171.146,304.963 170.755,304.278 171.736 " stroke="none" fill="#ece4ec" fill-rule="evenodd"></path><path id="path2" d="M216.150 101.600 C 216.452 101.967,217.483 103.167,218.441 104.267 C 231.840 119.650,237.804 131.337,239.328 145.200 C 241.442 164.427,241.044 177.424,238.143 183.875 C 236.325 187.918,227.628 201.357,218.044 214.933 C 217.888 215.153,218.407 214.733,219.197 214.000 C 236.141 198.261,245.105 173.458,242.279 150.133 C 241.567 144.261,239.358 135.708,237.285 130.800 C 236.975 130.067,236.545 129.047,236.328 128.533 C 235.161 125.762,230.531 117.344,229.876 116.800 C 229.787 116.727,229.126 115.827,228.405 114.800 C 226.296 111.794,223.571 108.609,220.414 105.460 C 217.184 102.238,215.190 100.433,216.150 101.600 M274.018 131.107 C 270.300 138.103,262.489 147.721,253.118 156.846 L 248.825 161.026 248.763 163.646 C 248.729 165.088,248.612 166.749,248.504 167.339 C 248.395 167.928,248.225 169.188,248.125 170.139 C 247.836 172.910,247.836 172.910,247.187 175.867 C 245.755 182.388,243.947 187.973,241.533 193.333 C 240.642 195.313,239.799 197.081,239.662 197.261 C 239.524 197.441,239.061 198.281,238.633 199.127 C 237.728 200.915,237.791 200.812,235.258 204.700 C 234.191 206.340,233.141 207.828,232.925 208.007 C 232.710 208.186,232.533 208.450,232.533 208.594 C 232.533 208.818,229.723 212.345,228.533 213.614 C 228.313 213.848,227.233 215.025,226.133 216.230 C 224.548 217.966,219.687 222.477,218.267 223.531 C 218.120 223.640,217.323 224.266,216.496 224.922 C 213.922 226.963,209.115 230.078,205.467 232.068 C 202.960 233.435,197.524 236.000,197.133 236.000 C 197.005 236.000,196.428 236.228,195.850 236.507 C 195.273 236.786,194.080 237.236,193.200 237.507 L 191.600 238.000 193.152 238.081 C 197.461 238.304,214.576 233.539,226.933 228.675 C 256.808 216.916,281.392 199.412,300.503 176.293 C 305.860 169.813,305.963 169.556,305.951 162.800 C 305.921 146.163,292.772 130.934,276.704 128.926 L 275.272 128.747 274.018 131.107 " stroke="none" fill="#ccccd4" fill-rule="evenodd"></path><path id="path3" d="M274.238 130.200 C 273.851 130.970,273.238 132.140,272.876 132.800 C 272.514 133.460,272.404 133.774,272.631 133.498 C 273.154 132.861,275.276 128.800,275.085 128.800 C 275.006 128.800,274.625 129.430,274.238 130.200 M270.837 136.000 C 270.154 137.027,269.652 137.867,269.721 137.867 C 269.790 137.867,270.310 137.177,270.877 136.333 C 272.132 134.466,272.330 134.133,272.188 134.133 C 272.128 134.133,271.520 134.973,270.837 136.000 M266.639 141.667 C 262.585 146.739,257.755 152.067,253.041 156.667 C 250.787 158.867,249.420 160.285,250.004 159.818 C 253.653 156.904,264.495 145.045,268.916 139.133 C 270.558 136.937,269.304 138.332,266.639 141.667 M240.634 165.867 C 240.634 167.553,240.677 168.243,240.730 167.400 C 240.783 166.557,240.783 165.177,240.730 164.333 C 240.677 163.490,240.634 164.180,240.634 165.867 M285.983 191.800 L 285.200 192.667 286.067 191.883 C 286.875 191.153,287.056 190.933,286.850 190.933 C 286.804 190.933,286.414 191.323,285.983 191.800 " stroke="none" fill="#d4d4d8" fill-rule="evenodd"></path><path id="path4" d="M159.492 83.445 C 159.225 83.615,159.319 83.670,159.826 83.641 C 160.215 83.618,160.533 83.510,160.533 83.400 C 160.533 83.129,159.952 83.154,159.492 83.445 M173.067 83.405 C 173.067 83.512,173.694 83.638,174.462 83.684 C 175.229 83.730,175.799 83.717,175.728 83.655 C 175.482 83.438,173.067 83.212,173.067 83.405 M148.333 85.255 C 148.003 85.318,147.733 85.472,147.733 85.597 C 147.733 85.800,149.572 85.430,149.844 85.172 C 149.975 85.048,149.183 85.091,148.333 85.255 M187.733 86.190 C 187.807 86.262,188.284 86.462,188.794 86.634 C 189.304 86.807,189.604 86.833,189.461 86.693 C 189.317 86.553,188.840 86.352,188.400 86.248 C 187.960 86.144,187.660 86.117,187.733 86.190 M139.267 88.259 C 138.643 88.542,138.133 88.836,138.133 88.911 C 138.133 89.046,140.546 88.076,140.772 87.850 C 141.038 87.585,140.328 87.778,139.267 88.259 M192.800 87.823 C 192.800 87.891,193.187 88.083,193.661 88.248 C 194.134 88.413,194.404 88.438,194.261 88.304 C 193.957 88.020,192.800 87.638,192.800 87.823 M238.733 89.791 C 239.137 89.852,239.797 89.852,240.200 89.791 C 240.603 89.730,240.273 89.680,239.467 89.680 C 238.660 89.680,238.330 89.730,238.733 89.791 M133.667 90.684 C 133.043 90.976,132.533 91.279,132.533 91.357 C 132.533 91.435,132.623 91.451,132.733 91.394 C 132.843 91.337,133.383 91.084,133.933 90.832 C 134.483 90.581,134.933 90.321,134.933 90.254 C 134.933 90.089,134.944 90.085,133.667 90.684 M123.467 96.667 C 122.970 97.033,122.676 97.333,122.815 97.332 C 123.085 97.331,124.766 96.026,124.518 96.010 C 124.437 96.004,123.964 96.300,123.467 96.667 M170.909 98.154 C 170.636 98.327,170.733 98.393,171.267 98.396 C 172.063 98.400,172.206 98.270,171.642 98.053 C 171.446 97.978,171.116 98.023,170.909 98.154 M224.000 100.133 C 224.498 100.647,224.965 101.067,225.038 101.067 C 225.111 101.067,224.764 100.647,224.267 100.133 C 223.769 99.620,223.302 99.200,223.229 99.200 C 223.155 99.200,223.502 99.620,224.000 100.133 M131.353 108.939 C 131.070 109.153,130.890 109.379,130.953 109.441 C 131.015 109.503,131.350 109.324,131.696 109.044 C 132.426 108.452,132.119 108.359,131.353 108.939 M202.667 109.600 C 204.034 110.620,204.267 110.764,204.267 110.588 C 204.267 110.432,201.670 108.533,201.456 108.533 C 201.336 108.533,201.880 109.013,202.667 109.600 M108.000 110.933 C 107.386 111.667,106.985 112.260,107.109 112.251 C 107.333 112.236,109.442 109.600,109.229 109.600 C 109.167 109.600,108.614 110.200,108.000 110.933 M126.836 112.689 C 126.416 113.058,126.124 113.413,126.189 113.478 C 126.253 113.542,126.649 113.236,127.069 112.797 C 127.997 111.828,127.878 111.773,126.836 112.689 M206.646 112.898 C 207.368 113.682,207.511 113.759,207.320 113.261 C 207.248 113.074,206.922 112.759,206.595 112.559 C 206.028 112.213,206.030 112.229,206.646 112.898 M104.447 115.618 C 103.890 116.415,103.532 117.060,103.651 117.051 C 103.879 117.035,105.665 114.376,105.535 114.246 C 105.493 114.204,105.003 114.822,104.447 115.618 M122.652 116.733 L 121.733 117.733 122.733 116.814 C 123.283 116.309,123.733 115.859,123.733 115.814 C 123.733 115.611,123.508 115.803,122.652 116.733 M212.000 118.083 C 212.000 118.203,212.380 118.653,212.844 119.083 L 213.688 119.867 212.946 118.867 C 212.193 117.853,212.000 117.693,212.000 118.083 M120.424 119.133 L 119.648 120.133 120.624 119.214 C 121.643 118.255,121.730 118.133,121.400 118.133 C 121.290 118.133,120.851 118.583,120.424 119.133 M100.933 121.067 C 100.706 121.507,100.580 121.867,100.653 121.867 C 100.726 121.867,100.972 121.507,101.200 121.067 C 101.428 120.627,101.554 120.267,101.480 120.267 C 101.407 120.267,101.161 120.627,100.933 121.067 M99.591 123.533 L 99.168 124.400 99.711 123.733 C 100.235 123.091,100.405 122.667,100.140 122.667 C 100.071 122.667,99.823 123.057,99.591 123.533 M146.267 122.933 C 146.357 123.080,146.694 123.192,147.016 123.181 C 147.579 123.163,147.581 123.154,147.067 122.933 C 146.333 122.618,146.072 122.618,146.267 122.933 M144.740 123.867 C 144.647 124.307,144.501 124.907,144.415 125.200 C 144.329 125.493,144.447 125.329,144.676 124.835 C 144.906 124.342,145.052 123.742,145.002 123.502 C 144.949 123.250,144.838 123.404,144.740 123.867 M168.082 123.666 C 169.961 123.712,172.961 123.712,174.749 123.666 C 176.537 123.620,175.000 123.582,171.333 123.582 C 167.667 123.582,166.204 123.620,168.082 123.666 M185.867 124.242 C 185.867 124.375,186.106 124.421,186.399 124.344 C 186.929 124.206,186.932 124.375,187.000 160.169 L 187.069 196.133 187.134 160.067 L 187.200 124.000 186.533 124.000 C 186.167 124.000,185.867 124.109,185.867 124.242 M190.197 159.933 C 190.162 179.770,190.223 196.000,190.333 196.000 C 190.514 196.000,190.513 170.995,190.331 136.800 C 190.293 129.687,190.233 140.097,190.197 159.933 M191.134 147.133 C 191.170 159.857,191.232 176.087,191.269 183.200 C 191.307 190.313,191.367 179.903,191.403 160.067 C 191.438 140.230,191.377 124.000,191.267 124.000 C 191.157 124.000,191.097 134.410,191.134 147.133 M192.396 159.867 C 192.396 179.667,192.428 187.806,192.467 177.954 C 192.505 168.102,192.505 151.902,192.467 141.954 C 192.428 132.006,192.396 140.067,192.396 159.867 M194.400 160.133 C 194.400 194.376,194.424 196.266,194.867 196.246 C 195.145 196.233,195.199 196.170,195.000 196.090 C 194.334 195.821,194.533 124.170,195.200 124.344 C 195.493 124.421,195.733 124.375,195.733 124.242 C 195.733 124.109,195.433 124.000,195.067 124.000 L 194.400 124.000 194.400 160.133 M98.450 125.746 C 97.647 127.400,97.736 127.631,98.564 126.041 C 98.934 125.330,99.191 124.702,99.135 124.646 C 99.080 124.591,98.771 125.086,98.450 125.746 M113.635 128.667 C 113.332 129.180,113.178 129.600,113.293 129.600 C 113.407 129.600,113.702 129.180,113.946 128.667 C 114.191 128.153,114.345 127.733,114.289 127.733 C 114.232 127.733,113.938 128.153,113.635 128.667 M219.782 128.933 C 219.949 129.300,220.189 129.600,220.316 129.600 C 220.442 129.600,220.349 129.300,220.109 128.933 C 219.869 128.567,219.628 128.267,219.575 128.267 C 219.522 128.267,219.615 128.567,219.782 128.933 M108.033 141.233 C 107.857 141.620,107.775 141.997,107.849 142.071 C 107.924 142.146,108.112 141.874,108.267 141.467 C 108.422 141.059,108.504 140.682,108.451 140.629 C 108.397 140.575,108.209 140.847,108.033 141.233 M106.463 147.192 C 106.312 147.785,106.281 148.327,106.394 148.396 C 106.584 148.514,106.996 146.374,106.818 146.196 C 106.773 146.151,106.613 146.599,106.463 147.192 M152.700 147.077 C 152.608 147.315,152.544 147.710,152.556 147.955 C 152.569 148.200,152.685 148.046,152.814 147.613 C 153.065 146.772,152.977 146.355,152.700 147.077 M91.267 150.533 C 91.270 151.120,91.325 151.329,91.389 150.997 C 91.452 150.665,91.450 150.185,91.383 149.930 C 91.316 149.675,91.264 149.947,91.267 150.533 M248.329 150.933 C 248.329 151.447,248.383 151.657,248.450 151.400 C 248.518 151.143,248.518 150.723,248.450 150.467 C 248.383 150.210,248.329 150.420,248.329 150.933 M136.831 150.712 C 136.814 150.956,136.731 151.376,136.647 151.645 C 136.501 152.108,136.509 152.109,136.798 151.658 C 136.965 151.397,137.048 150.977,136.982 150.725 C 136.874 150.312,136.859 150.311,136.831 150.712 M90.995 152.800 C 90.995 153.313,91.050 153.523,91.117 153.267 C 91.184 153.010,91.184 152.590,91.117 152.333 C 91.050 152.077,90.995 152.287,90.995 152.800 M135.498 155.112 C 135.481 155.283,135.389 155.643,135.294 155.912 C 135.160 156.291,135.196 156.332,135.452 156.095 C 135.634 155.927,135.726 155.567,135.656 155.295 C 135.586 155.023,135.515 154.940,135.498 155.112 M227.821 159.067 C 227.822 160.093,227.870 160.481,227.928 159.927 C 227.986 159.374,227.985 158.534,227.926 158.061 C 227.867 157.587,227.820 158.040,227.821 159.067 M105.662 161.333 C 105.662 161.847,105.717 162.057,105.784 161.800 C 105.851 161.543,105.851 161.123,105.784 160.867 C 105.717 160.610,105.662 160.820,105.662 161.333 M147.100 166.010 C 147.008 166.249,146.944 166.644,146.956 166.888 C 146.969 167.133,147.085 166.979,147.214 166.547 C 147.465 165.705,147.377 165.289,147.100 166.010 M146.478 168.277 C 146.314 168.711,146.276 169.067,146.394 169.067 C 146.613 169.067,147.034 167.745,146.868 167.579 C 146.817 167.528,146.642 167.842,146.478 168.277 M131.352 169.219 C 131.254 169.610,131.234 169.990,131.307 170.063 C 131.381 170.136,131.521 169.877,131.619 169.486 C 131.717 169.095,131.737 168.715,131.664 168.642 C 131.591 168.568,131.450 168.828,131.352 169.219 M91.467 169.733 C 91.467 170.100,91.570 170.400,91.696 170.400 C 91.823 170.400,91.869 170.100,91.799 169.733 C 91.729 169.367,91.625 169.067,91.569 169.067 C 91.513 169.067,91.467 169.367,91.467 169.733 M227.036 169.718 C 226.955 169.929,226.935 170.319,226.993 170.584 C 227.058 170.886,227.149 170.741,227.236 170.200 C 227.381 169.292,227.287 169.064,227.036 169.718 M106.335 170.267 C 106.405 170.633,106.508 170.933,106.564 170.933 C 106.621 170.933,106.667 170.633,106.667 170.267 C 106.667 169.900,106.563 169.600,106.437 169.600 C 106.311 169.600,106.265 169.900,106.335 170.267 M310.593 176.553 C 310.919 176.893,311.252 177.103,311.334 177.021 C 311.416 176.939,311.150 176.662,310.742 176.404 L 310.000 175.936 310.593 176.553 M312.400 178.015 C 314.594 180.038,315.047 180.376,313.867 179.112 C 313.207 178.404,312.427 177.702,312.133 177.552 C 311.820 177.391,311.929 177.582,312.400 178.015 M127.224 183.224 C 127.044 183.826,126.945 184.368,127.005 184.428 C 127.065 184.488,127.262 184.044,127.442 183.442 C 127.623 182.841,127.721 182.299,127.661 182.239 C 127.601 182.179,127.405 182.622,127.224 183.224 M222.710 183.611 C 222.263 184.592,222.348 184.801,222.832 183.910 C 223.057 183.493,223.192 183.103,223.131 183.042 C 223.070 182.981,222.880 183.237,222.710 183.611 M95.219 184.933 C 95.219 185.080,95.390 185.500,95.600 185.867 C 95.810 186.233,95.981 186.413,95.981 186.267 C 95.981 186.120,95.810 185.700,95.600 185.333 C 95.390 184.967,95.219 184.787,95.219 184.933 M221.467 186.133 C 221.239 186.573,221.113 186.933,221.186 186.933 C 221.260 186.933,221.506 186.573,221.733 186.133 C 221.961 185.693,222.087 185.333,222.014 185.333 C 221.940 185.333,221.694 185.693,221.467 186.133 M141.219 186.286 C 141.121 186.677,141.092 187.048,141.155 187.111 C 141.218 187.173,141.350 186.905,141.448 186.514 C 141.546 186.123,141.575 185.752,141.512 185.689 C 141.449 185.627,141.317 185.895,141.219 186.286 M320.720 188.791 C 320.796 189.080,321.043 189.470,321.270 189.658 C 321.619 189.947,321.613 189.866,321.234 189.133 C 320.728 188.154,320.517 188.013,320.720 188.791 M139.511 191.986 C 139.355 192.434,139.284 192.800,139.354 192.800 C 139.534 192.800,140.037 191.415,139.905 191.283 C 139.844 191.222,139.667 191.539,139.511 191.986 M323.998 198.656 C 324.109 199.260,324.290 199.840,324.402 199.944 C 324.671 200.196,324.286 198.063,324.011 197.779 C 323.893 197.657,323.888 198.052,323.998 198.656 M121.881 200.733 C 121.890 200.843,122.280 201.226,122.748 201.583 L 123.600 202.233 122.817 201.383 C 122.002 200.499,121.857 200.398,121.881 200.733 M210.783 201.379 L 210.000 202.224 210.867 201.627 C 211.343 201.299,211.733 200.919,211.733 200.782 C 211.733 200.401,211.628 200.467,210.783 201.379 M123.893 202.733 C 123.972 202.917,124.418 203.358,124.885 203.715 L 125.733 204.363 124.814 203.382 C 123.824 202.324,123.671 202.216,123.893 202.733 M208.390 203.789 L 207.067 205.177 208.304 204.122 C 209.338 203.240,210.059 202.400,209.782 202.400 C 209.744 202.400,209.118 203.025,208.390 203.789 M205.441 206.441 L 204.933 207.016 205.667 206.544 C 206.423 206.057,206.566 205.867,206.175 205.867 C 206.051 205.867,205.721 206.125,205.441 206.441 M111.200 211.017 C 111.200 211.063,111.590 211.453,112.067 211.883 L 112.933 212.667 112.150 211.800 C 111.420 210.992,111.200 210.811,111.200 211.017 M135.733 211.856 C 135.733 211.929,136.213 212.234,136.800 212.533 C 137.387 212.833,137.867 213.018,137.867 212.944 C 137.867 212.871,137.387 212.566,136.800 212.267 C 136.213 211.967,135.733 211.782,135.733 211.856 M196.467 212.419 C 195.433 212.980,195.550 213.174,196.600 212.640 C 197.605 212.128,197.783 211.996,197.444 212.011 C 197.310 212.017,196.870 212.200,196.467 212.419 M192.800 214.400 C 192.287 214.681,191.963 214.916,192.080 214.922 C 192.362 214.937,193.867 214.155,193.867 213.993 C 193.867 213.819,193.851 213.825,192.800 214.400 M140.383 214.372 C 140.465 214.505,140.920 214.749,141.393 214.914 C 142.392 215.262,142.090 214.920,140.983 214.449 C 140.570 214.273,140.300 214.238,140.383 214.372 M321.622 217.560 C 321.463 217.856,321.338 218.256,321.344 218.449 C 321.350 218.642,321.539 218.459,321.765 218.043 C 321.990 217.627,322.115 217.227,322.042 217.154 C 321.970 217.081,321.780 217.263,321.622 217.560 M155.733 219.572 C 155.733 219.630,156.213 219.723,156.800 219.779 C 157.387 219.835,157.867 219.788,157.867 219.674 C 157.867 219.560,157.387 219.467,156.800 219.467 C 156.213 219.467,155.733 219.514,155.733 219.572 M175.733 219.696 C 175.733 219.823,176.033 219.869,176.400 219.799 C 176.767 219.729,177.067 219.625,177.067 219.569 C 177.067 219.513,176.767 219.467,176.400 219.467 C 176.033 219.467,175.733 219.570,175.733 219.696 M166.336 220.455 C 166.668 220.519,167.148 220.517,167.403 220.450 C 167.658 220.383,167.387 220.331,166.800 220.334 C 166.213 220.337,166.005 220.391,166.336 220.455 M314.588 228.133 C 314.044 228.647,313.696 229.067,313.814 229.067 C 313.932 229.067,314.436 228.647,314.933 228.133 C 315.431 227.620,315.779 227.200,315.708 227.200 C 315.636 227.200,315.133 227.620,314.588 228.133 M310.933 231.138 C 310.933 231.251,310.603 231.548,310.200 231.798 C 309.797 232.048,309.587 232.255,309.733 232.258 C 309.880 232.261,310.360 231.969,310.800 231.608 C 311.240 231.248,311.450 230.948,311.267 230.943 C 311.083 230.938,310.933 231.026,310.933 231.138 M145.589 232.140 C 146.244 232.343,146.820 232.469,146.870 232.419 C 147.006 232.283,145.318 231.731,144.827 231.751 C 144.592 231.761,144.935 231.936,145.589 232.140 M187.200 232.133 C 185.955 232.613,186.493 232.622,188.000 232.147 C 188.660 231.939,188.960 231.770,188.667 231.771 C 188.373 231.773,187.713 231.936,187.200 232.133 M147.351 232.504 C 147.634 232.763,149.286 233.197,149.036 232.947 C 148.946 232.857,148.474 232.669,147.988 232.530 C 147.501 232.390,147.215 232.378,147.351 232.504 M184.800 232.812 C 184.508 233.010,184.616 233.035,185.200 232.904 C 186.181 232.685,186.393 232.532,185.711 232.537 C 185.430 232.540,185.020 232.663,184.800 232.812 M159.200 234.704 C 159.200 234.830,159.500 234.933,159.867 234.933 C 160.233 234.933,160.533 234.887,160.533 234.831 C 160.533 234.775,160.233 234.671,159.867 234.601 C 159.500 234.531,159.200 234.577,159.200 234.704 M173.600 234.667 L 172.933 234.880 173.667 234.907 C 174.070 234.921,174.400 234.813,174.400 234.667 C 174.400 234.520,174.370 234.412,174.333 234.427 C 174.297 234.441,173.967 234.549,173.600 234.667 M165.410 235.131 C 166.258 235.184,167.578 235.183,168.343 235.130 C 169.108 235.076,168.413 235.032,166.800 235.033 C 165.187 235.034,164.561 235.078,165.410 235.131 M170.200 235.117 C 170.457 235.184,170.877 235.184,171.133 235.117 C 171.390 235.050,171.180 234.995,170.667 234.995 C 170.153 234.995,169.943 235.050,170.200 235.117 " stroke="none" fill="#ececec" fill-rule="evenodd"></path></g></svg>
